<svg xmlns="http://www.w3.org/2000/svg" xmlns:xlink="http://www.w3.org/1999/xlink" fill="none" version="1.1" width="686.1599731445312" height="121.42153930664062" viewBox="0 0 686.1599731445312 121.42153930664062"><g><g><path d="M34.704,121.42153369140625Q28.224,121.42153369140625,22.464,119.62153369140626Q16.704,117.82153369140624,12.096,114.14953369140625Q7.488,110.47753369140625,4.32,105.00553369140626Q1.152,99.53353369140625,0,92.18953369140625L18.576,84.70153369140625Q18.864,88.58953369140625,20.16,91.90153369140624Q21.456,95.21353369140625,23.76,97.66153369140625Q26.064,100.10953369140626,29.304,101.54953369140625Q32.544,102.98953369140625,36.72,102.98953369140625Q44.208,102.98953369140625,49.392,99.31753369140625Q54.576,95.64553369140626,54.576,89.30953369140624Q54.576,83.98153369140626,50.832,80.38153369140625Q47.088,76.78153369140625,37.872,73.18153369140626L32.832,71.16553369140625Q28.656,69.58153369140625,24.84,67.20553369140626Q21.024,64.82953369140625,18.144,61.51753369140625Q15.264,58.20553369140625,13.536,53.81353369140625Q11.808,49.42153369140625,11.808,43.805533691406254Q11.808,37.32553369140625,14.616,31.78153369140625Q17.424,26.23753369140625,22.32,22.277533691406248Q27.216,18.31753369140625,33.912,16.01353369140625Q40.608,13.70953369140625,48.384,13.70953369140625Q56.304,13.70953369140625,61.92,15.86953369140625Q67.536,18.02953369140625,71.208,21.341533691406248Q74.88,24.653533691406253,76.896,28.469533691406248Q78.912,32.28553369140625,79.632,35.74153369140625L61.776,42.50953369140625Q60.768,37.90153369140625,57.096,34.73353369140625Q53.424,31.56553369140625,46.368,31.56553369140625Q43.488,31.56553369140625,40.752,32.357533691406246Q38.016,33.14953369140625,35.856,34.589533691406245Q33.696,36.02953369140625,32.4,38.189533691406254Q31.104,40.34953369140625,31.104,43.085533691406255Q31.104,47.83753369140625,34.632,50.93353369140625Q38.16,54.02953369140625,45.504,56.76553369140625L51.552,58.92553369140625Q61.92,62.81353369140625,68.04,69.43753369140626Q74.16,76.06153369140625,74.16,87.14953369140625Q74.16,94.63753369140625,71.28,100.90153369140624Q68.4,107.16553369140625,63.216,111.70153369140625Q58.032,116.23753369140626,50.76,118.82953369140625Q43.488,121.42153369140625,34.704,121.42153369140625ZM114.192,44.957533691406255L110.736,57.77353369140625L111.888,57.77353369140625Q115.776,52.30153369140625,121.824,49.27753369140625Q127.872,46.25353369140625,135.216,46.25353369140625Q140.976,46.25353369140625,145.152,48.05353369140625Q149.328,49.85353369140625,152.136,52.87753369140625Q154.944,55.90153369140625,156.312,59.93353369140625Q157.68,63.96553369140625,157.68,68.42953369140625Q157.68,71.74153369140625,156.816,76.92553369140626L149.328,119.11753369140625L130.464,119.11753369140625L137.664,78.65353369140625Q138.096,76.06153369140625,138.096,74.47753369140625Q138.096,69.86953369140625,135.36,66.77353369140624Q132.624,63.67753369140625,127.296,63.67753369140625Q122.976,63.67753369140625,119.592,65.33353369140625Q116.208,66.98953369140625,113.688,69.79753369140624Q111.168,72.60553369140625,109.584,76.42153369140625Q108,80.23753369140626,107.28,84.70153369140625L101.232,119.11753369140625L82.368,119.11753369140625L100.512,16.01353369140625L119.376,16.01353369140625L114.192,44.957533691406255ZM207.792,46.25353369140625Q222.336,46.25353369140625,229.968,53.16553369140625Q237.6,60.07753369140625,237.6,71.30953369140624Q237.6,73.03753369140625,237.384,74.83753369140625Q237.168,76.63753369140625,236.88,78.65353369140625L229.68,119.11753369140625L211.104,119.11753369140625L212.4,111.62953369140625L211.248,111.62953369140625Q207.936,115.80553369140625,202.968,118.61353369140625Q198,121.42153369140625,190.944,121.42153369140625Q185.616,121.42153369140625,181.224,119.76553369140625Q176.832,118.10953369140626,173.736,115.15753369140624Q170.64,112.20553369140625,168.912,108.10153369140625Q167.184,103.99753369140625,167.184,99.24553369140625Q167.184,93.19753369140625,169.56,88.44553369140625Q171.936,83.69353369140624,176.328,80.30953369140624Q180.72,76.92553369140626,186.84,75.12553369140625Q192.96,73.32553369140625,200.304,73.32553369140625Q205.632,73.32553369140625,210.024,74.26153369140624Q214.416,75.19753369140625,218.448,76.63753369140625L219.024,74.47753369140625Q219.312,73.03753369140625,219.312,72.17353369140625Q219.312,67.56553369140624,215.496,64.54153369140624Q211.68,61.51753369140625,205.488,61.51753369140625Q200.016,61.51753369140625,195.84,63.60553369140625Q191.664,65.69353369140626,188.352,69.58153369140625L175.68,60.36553369140625Q181.44,53.02153369140625,189.792,49.63753369140625Q198.144,46.25353369140625,207.792,46.25353369140625ZM197.136,106.73353369140625Q200.736,106.73353369140625,203.976,105.36553369140626Q207.216,103.99753369140625,209.736,101.76553369140625Q212.256,99.53353369140625,213.912,96.58153369140625Q215.568,93.62953369140625,216.144,90.46153369140625Q213.984,89.45353369140625,210.024,88.22953369140625Q206.064,87.00553369140626,200.88,87.00553369140626Q194.832,87.00553369140626,190.512,89.66953369140624Q186.192,92.33353369140625,186.192,97.80553369140625Q186.192,102.26953369140625,189.432,104.50153369140625Q192.672,106.73353369140625,197.136,106.73353369140625ZM272.16,48.55753369140625L254.448,48.55753369140625L242.064,119.11753369140625L260.928,119.11753369140625C269.546,69.03903369140625,272.115,48.81223369140625,272.16,48.55753369140625ZM309.744,67.56553369140624L300.672,119.11753369140625L319.536,119.11753369140625L325.526,80.23463369140624L331.239,82.46703369140624L348.048,119.11753369140625L369.36,119.11753369140625L369.648,117.96553369140625L349.55,77.94743369140625L328.08,75.62953369140625L326.928,75.62953369140625L309.744,67.56553369140624ZM473.616,102.84553369140625Q468.72,107.88553369140625,463.824,111.34153369140626Q458.928,114.79753369140624,453.6,117.10153369140625Q448.272,119.40553369140625,442.224,120.41353369140624Q436.176,121.42153369140625,429.12,121.42153369140625Q419.328,121.42153369140625,410.832,118.10953369140626Q402.336,114.79753369140624,396,108.60553369140625Q389.664,102.41353369140624,385.992,93.55753369140625Q382.32,84.70153369140625,382.32,73.61353369140625Q382.32,61.51753369140625,386.928,50.64553369140625Q391.536,39.77353369140625,399.744,31.56553369140625Q407.952,23.35753369140625,419.328,18.53354369140625Q430.704,13.70953369140625,444.384,13.70953369140625Q457.488,13.70953369140625,466.848,18.46153369140625Q476.208,23.213533691406248,481.824,31.42153369140625L466.272,44.09353369140625Q462.096,38.47753369140625,456.336,35.30953369140625Q450.576,32.14153369140625,441.792,32.14153369140625Q433.584,32.14153369140625,426.384,35.30953369140625Q419.184,38.47753369140625,413.712,43.949533691406245Q408.24,49.42153369140625,405.072,56.76553369140625Q401.904,64.10953369140626,401.904,72.60553369140625Q401.904,79.51753369140626,404.136,85.13353369140626Q406.368,90.74953369140626,410.256,94.70953369140625Q414.144,98.66953369140624,419.472,100.82953369140625Q424.8,102.98953369140625,431.136,102.98953369140625Q440.352,102.98953369140625,447.552,99.17353369140625Q454.752,95.35753369140625,461.232,88.87753369140626L473.616,102.84553369140625ZM503.136,16.01353369140625L521.712,16.01353369140625L543.6,70.58953369140625L544.752,70.58953369140625L585.648,16.01353369140625L605.808,16.01353369140625L587.52,119.11753369140625L568.224,119.11753369140625L577.296,68.28553369140624L581.472,51.00553369140625L580.32,51.00553369140625L545.904,97.22953369140625L534.672,97.22953369140625L516.096,51.00553369140625L514.944,51.00553369140625L513.072,68.28553369140624L504,119.11753369140625L484.848,119.11753369140625L503.136,16.01353369140625ZM641.232,121.42153369140625Q634.752,121.42153369140625,628.992,119.62153369140626Q623.232,117.82153369140624,618.624,114.14953369140625Q614.016,110.47753369140625,610.848,105.00553369140626Q607.68,99.53353369140625,606.528,92.18953369140625L625.104,84.70153369140625Q625.392,88.58953369140625,626.688,91.90153369140624Q627.984,95.21353369140625,630.288,97.66153369140625Q632.592,100.10953369140626,635.832,101.54953369140625Q639.072,102.98953369140625,643.248,102.98953369140625Q650.736,102.98953369140625,655.92,99.31753369140625Q661.104,95.64553369140626,661.104,89.30953369140624Q661.104,83.98153369140626,657.36,80.38153369140625Q653.616,76.78153369140625,644.4,73.18153369140626L639.36,71.16553369140625Q635.184,69.58153369140625,631.368,67.20553369140626Q627.552,64.82953369140625,624.672,61.51753369140625Q621.792,58.20553369140625,620.064,53.81353369140625Q618.336,49.42153369140625,618.336,43.805533691406254Q618.336,37.32553369140625,621.144,31.78153369140625Q623.952,26.23753369140625,628.848,22.277533691406248Q633.744,18.31753369140625,640.44,16.01353369140625Q647.136,13.70953369140625,654.912,13.70953369140625Q662.832,13.70953369140625,668.448,15.86953369140625Q674.064,18.02953369140625,677.736,21.341533691406248Q681.408,24.653533691406253,683.424,28.469533691406248Q685.44,32.28553369140625,686.16,35.74153369140625L668.304,42.50953369140625Q667.296,37.90153369140625,663.624,34.73353369140625Q659.952,31.56553369140625,652.896,31.56553369140625Q650.016,31.56553369140625,647.28,32.357533691406246Q644.544,33.14953369140625,642.384,34.589533691406245Q640.224,36.02953369140625,638.928,38.189533691406254Q637.632,40.34953369140625,637.632,43.085533691406255Q637.632,47.83753369140625,641.16,50.93353369140625Q644.688,54.02953369140625,652.032,56.76553369140625L658.08,58.92553369140625Q668.448,62.81353369140625,674.568,69.43753369140626Q680.688,76.06153369140625,680.688,87.14953369140625Q680.688,94.63753369140625,677.808,100.90153369140624Q674.928,107.16553369140625,669.744,111.70153369140625Q664.56,116.23753369140626,657.288,118.82953369140625Q650.016,121.42153369140625,641.232,121.42153369140625Z" fill="#000000" fill-opacity="1"/></g><g><path d="M274.26995849609375,53.52702622070312Q285.39045849609374,49.571896220703124,299.47075849609377,51.77942622070312C305.29875849609374,52.69312622070312,311.3812584960938,56.059726220703126,317.81235849609374,59.61932622070313C326.91875849609374,64.65972622070312,336.72415849609376,70.08702622070312,347.49595849609375,69.48502622070313Q365.87495849609377,68.45792622070313,383.08695849609376,41.26530422070312Q368.41695849609374,55.45272622070313,350.0379584960938,53.52702622070312C331.65895849609376,51.60132622070313,328.06335849609377,42.80587622070313,311.06835849609377,41.265300220703125Q294.07325849609373,39.724726220703126,274.26995849609375,53.52702622070312Z" fill="#2D8CF0" fill-opacity="1"/></g><g><path d="M316.4510299350875,36.0158C328.6575498046875,38.6008,333.4474498046875,45.2968,348.4160498046875,47.2855Q347.5880498046875,43.3935,347.0695498046875,39.5996Q345.8764498046875,30.87,346.3219498046875,22.6597L340.7884498046875,20.8008L346.8984498046875,17.3535L351.7456498046875,-0.00000572205Q339.1983498046875,1.84966,327.8530498046875,15.3766Q319.9609098046875,24.7863,316.4510299350875,36.0158Z" fill-rule="evenodd" fill="#000000" fill-opacity="1"/></g><g><path d="M270.73876953125,61.772197944335936Q280.13986953125,61.07071794433594,291.54666953125,65.40522794433593C295.37616953125,66.86036794433593,300.17616953125,69.63346794433593,305.44186953125,72.67566794433594C315.86106953125,78.69506794433593,328.10326953125,85.76776794433593,338.25706953125,85.76766794433594Q353.54236953125,85.76766794433594,370.11276953125,70.93636794433594Q348.58606953125,77.54036794433594,333.15166953125,72.61216794433594C317.71736953125003,67.68406794433594,307.70466953125,57.34307794433594,293.95806953125,55.80249594433594Q280.21139953125,54.261917944335934,270.73876953125,61.772197944335936Z" fill="#2D8CF0" fill-opacity="1"/></g></g></svg>