<svg xmlns="http://www.w3.org/2000/svg" fill="none" viewBox="0 0 48 48"><path stroke-linejoin="round" stroke-linecap="round" stroke-width="4" stroke="#FFCE49" fill="#FFCE49" d="M10 44h28a2 2 0 0 0 2-2V14H30V4H10a2 2 0 0 0-2 2v36a2 2 0 0 0 2 2Z" data-follow-fill="#FFCE49" data-follow-stroke="#FFCE49"/><path stroke-linejoin="round" stroke-linecap="round" stroke-width="4" stroke="#FFCE49" d="m30 4 10 10" data-follow-stroke="#FFCE49"/><path stroke-linejoin="round" stroke-linecap="round" stroke-width="4" stroke="#FFF" d="M24 31v-3c2.21 0 4-2.015 4-4.5S26.21 19 24 19s-4 2.015-4 4.5"/><path fill="#FFF" d="M24 39a2.5 2.5 0 1 0 0-5 2.5 2.5 0 0 0 0 5Z" clip-rule="evenodd" fill-rule="evenodd"/></svg>